<?xml version="1.0" encoding="UTF-8"?>
<svg xmlns="http://www.w3.org/2000/svg" xmlns:xlink="http://www.w3.org/1999/xlink" width="20px" height="22px" viewBox="0 0 20 22" version="1.1">
<g id="surface1">
<path style=" stroke:none;fill-rule:nonzero;fill:rgb(54.901961%,78.431373%,29.411765%);fill-opacity:1;" d="M 9.101562 0.277344 C 9.644531 -0.03125 10.351562 -0.03125 10.894531 0.277344 C 13.628906 1.820312 16.363281 3.363281 19.097656 4.90625 C 19.609375 5.195312 19.953125 5.765625 19.949219 6.359375 L 19.949219 15.640625 C 19.953125 16.253906 19.574219 16.839844 19.03125 17.121094 C 16.308594 18.65625 13.585938 20.191406 10.859375 21.726562 C 10.304688 22.042969 9.582031 22.019531 9.046875 21.675781 C 8.230469 21.203125 7.410156 20.734375 6.59375 20.261719 C 6.425781 20.160156 6.238281 20.082031 6.121094 19.921875 C 6.226562 19.78125 6.410156 19.761719 6.5625 19.703125 C 6.902344 19.59375 7.214844 19.417969 7.53125 19.25 C 7.609375 19.195312 7.707031 19.21875 7.78125 19.265625 C 8.480469 19.664062 9.171875 20.078125 9.875 20.472656 C 10.023438 20.558594 10.175781 20.445312 10.300781 20.375 C 12.976562 18.863281 15.652344 17.363281 18.324219 15.851562 C 18.425781 15.804688 18.480469 15.699219 18.472656 15.589844 C 18.472656 12.53125 18.472656 9.46875 18.472656 6.40625 C 18.484375 6.28125 18.410156 6.167969 18.300781 6.121094 C 15.585938 4.59375 12.871094 3.0625 10.15625 1.535156 C 10.0625 1.46875 9.933594 1.46875 9.839844 1.535156 C 7.125 3.0625 4.410156 4.59375 1.695312 6.121094 C 1.585938 6.171875 1.511719 6.28125 1.523438 6.40625 C 1.523438 9.46875 1.523438 12.53125 1.523438 15.589844 C 1.515625 15.699219 1.574219 15.800781 1.671875 15.847656 C 2.394531 16.257812 3.121094 16.667969 3.847656 17.074219 C 4.253906 17.296875 4.753906 17.425781 5.207031 17.257812 C 5.601562 17.117188 5.878906 16.710938 5.875 16.289062 C 5.878906 13.246094 5.871094 10.203125 5.875 7.15625 C 5.867188 7.023438 5.996094 6.910156 6.125 6.925781 C 6.472656 6.921875 6.824219 6.917969 7.171875 6.925781 C 7.316406 6.921875 7.414062 7.066406 7.398438 7.203125 C 7.398438 10.265625 7.402344 13.328125 7.394531 16.394531 C 7.398438 17.210938 7.0625 18.097656 6.304688 18.496094 C 5.375 18.980469 4.222656 18.875 3.300781 18.414062 C 2.503906 18.015625 1.746094 17.546875 0.964844 17.125 C 0.417969 16.84375 0.0429688 16.253906 0.046875 15.640625 L 0.046875 6.359375 C 0.0429688 5.753906 0.398438 5.171875 0.929688 4.886719 C 3.652344 3.351562 6.375 1.816406 9.101562 0.277344 Z M 9.101562 0.277344 "/>
<path style=" stroke:none;fill-rule:nonzero;fill:rgb(54.901961%,78.431373%,29.411765%);fill-opacity:1;" d="M 11.476562 6.707031 C 12.664062 6.632812 13.9375 6.664062 15.003906 7.246094 C 15.832031 7.695312 16.292969 8.636719 16.304688 9.554688 C 16.285156 9.679688 16.152344 9.746094 16.035156 9.738281 C 15.691406 9.738281 15.347656 9.742188 15 9.734375 C 14.855469 9.742188 14.769531 9.605469 14.75 9.476562 C 14.652344 9.039062 14.414062 8.601562 14 8.390625 C 13.363281 8.074219 12.625 8.089844 11.933594 8.09375 C 11.425781 8.121094 10.882812 8.167969 10.453125 8.464844 C 10.125 8.6875 10.023438 9.144531 10.140625 9.507812 C 10.253906 9.773438 10.554688 9.855469 10.804688 9.933594 C 12.238281 10.308594 13.753906 10.273438 15.15625 10.765625 C 15.738281 10.964844 16.308594 11.355469 16.507812 11.960938 C 16.769531 12.777344 16.652344 13.75 16.074219 14.40625 C 15.601562 14.945312 14.917969 15.238281 14.234375 15.398438 C 13.324219 15.597656 12.378906 15.605469 11.453125 15.515625 C 10.585938 15.414062 9.683594 15.1875 9.011719 14.597656 C 8.4375 14.097656 8.15625 13.324219 8.1875 12.574219 C 8.191406 12.449219 8.320312 12.363281 8.441406 12.371094 C 8.785156 12.371094 9.132812 12.367188 9.480469 12.371094 C 9.621094 12.363281 9.722656 12.480469 9.730469 12.613281 C 9.792969 13.03125 9.949219 13.472656 10.316406 13.71875 C 11.023438 14.171875 11.90625 14.144531 12.714844 14.15625 C 13.382812 14.125 14.136719 14.117188 14.683594 13.675781 C 14.96875 13.421875 15.054688 13 14.976562 12.640625 C 14.894531 12.332031 14.574219 12.191406 14.296875 12.097656 C 12.882812 11.648438 11.347656 11.8125 9.949219 11.308594 C 9.382812 11.105469 8.832031 10.726562 8.613281 10.144531 C 8.308594 9.320312 8.449219 8.296875 9.089844 7.664062 C 9.714844 7.039062 10.617188 6.796875 11.476562 6.707031 Z M 11.476562 6.707031 "/>
</g>
</svg>
