<?xml version="1.0" encoding="UTF-8"?>
<svg xmlns="http://www.w3.org/2000/svg" xmlns:xlink="http://www.w3.org/1999/xlink" width="20px" height="11px" viewBox="0 0 20 11" version="1.1">
<g id="surface1">
<path style=" stroke:none;fill-rule:nonzero;fill:rgb(0%,0%,0%);fill-opacity:1;" d="M 6.097656 7.273438 C 7.101562 7.273438 7.910156 6.457031 7.910156 5.453125 C 7.910156 4.445312 7.101562 3.628906 6.097656 3.628906 C 5.097656 3.628906 4.285156 4.445312 4.285156 5.453125 C 4.285156 6.457031 5.097656 7.273438 6.097656 7.273438 Z M 1.8125 10.921875 C 2.816406 10.921875 3.625 10.105469 3.625 9.097656 C 3.625 8.089844 2.816406 7.273438 1.8125 7.273438 C 0.8125 7.273438 0 8.089844 0 9.097656 C 0 10.105469 0.8125 10.921875 1.8125 10.921875 Z M 18.1875 10.921875 C 19.1875 10.921875 20 10.105469 20 9.097656 C 20 8.089844 19.1875 7.273438 18.1875 7.273438 C 17.183594 7.273438 16.375 8.089844 16.375 9.097656 C 16.375 10.105469 17.183594 10.921875 18.1875 10.921875 Z M 18.1875 10.921875 "/>
<path style=" stroke:none;fill-rule:nonzero;fill:rgb(81.568627%,0.784314%,10.588235%);fill-opacity:1;" d="M 12.230469 5.527344 C 12.171875 4.917969 12.144531 4.410156 11.679688 4.054688 C 11.09375 3.605469 10.425781 3.898438 9.605469 3.597656 C 8.800781 3.402344 8.203125 2.683594 8.203125 1.824219 C 8.203125 0.816406 9.03125 0 10.050781 0 C 10.804688 0 11.453125 0.449219 11.738281 1.089844 C 12.175781 1.925781 11.890625 2.777344 12.441406 3.207031 C 13.09375 3.714844 13.972656 3.34375 14.949219 3.824219 C 15.265625 3.96875 15.53125 4.199219 15.71875 4.484375 C 15.90625 4.769531 16.015625 5.113281 16.015625 5.476562 C 16.015625 6.335938 15.417969 7.054688 14.613281 7.25 C 13.792969 7.546875 13.125 7.257812 12.539062 7.707031 C 11.878906 8.214844 12.230469 9.0625 11.691406 9.960938 C 11.386719 10.550781 10.765625 10.957031 10.050781 10.957031 C 9.03125 10.957031 8.203125 10.136719 8.203125 9.128906 C 8.203125 8.398438 8.640625 7.765625 9.269531 7.472656 C 10.246094 6.992188 11.125 7.367188 11.777344 6.859375 C 12.152344 6.566406 12.230469 6.113281 12.230469 5.527344 Z M 12.230469 5.527344 "/>
</g>
</svg>
